PathFileType	4	(X/Y/Z)	D:\TRACE\v60_Jaco2_6-2-23\JustArmDRS_Motion1_2-v60.trc
DataRate	CameraRate	NumFrames	NumMarkers	Units	OrigDataRate	OrigDataStartFrame	OrigNumFrames
100.00	100.00	      38	9	mm	100.00	2554	      6808
Frame#	Time	front left toe			Front right toe			aft left toe			aft right toe			Arm			FL body			FR body			AL Body			AR Body			
		X1	Y1	Z1	X2	Y2	Z2	X3	Y3	Z3	X4	Y4	Z4	X5	Y5	Z5	X6	Y6	Z6	X7	Y7	Z7	X8	Y8	Z8	X9	Y9	Z9	

2554	25.530	-175.78412	12.82889	-173.14459	231.80589	6.87045	-217.34209	-109.74812	35.39005	431.87186	293.16064	34.71951	420.27435	45.46685	1139.18250	-615.28949	-47.59333	575.00739	-327.21796	111.41149	571.99377	-344.19058	53.98820	603.58130	612.28937	210.16577	595.09570	597.13989	
2555	25.540	-176.77521	13.01635	-173.20233	231.04181	6.72387	-217.31963	-110.63944	35.52940	431.91187	292.38184	34.82328	420.41043	44.66845	1138.32495	-615.53174	-48.62115	574.94067	-327.33487	110.93957	572.01569	-344.57083	53.28005	603.71906	612.26471	209.41737	595.17615	597.10229	
2556	25.550	-177.25972	12.91802	-173.41934	230.24486	6.58695	-217.32785	-111.37570	35.49600	431.74216	291.41840	34.77561	420.35678	43.87009	1137.76782	-615.83191	-48.97243	574.66858	-327.11447	110.55582	572.16144	-345.13776	52.43804	603.76251	612.12128	208.49597	595.29803	597.11359	
2557	25.560	-178.13495	12.81732	-173.39328	229.14201	6.51224	-217.43315	-112.20042	35.54467	431.62598	290.69647	34.77424	420.39978	43.01973	1137.03809	-616.25159	-49.87730	574.67590	-327.32199	109.75764	571.87244	-344.85339	51.53269	603.76453	612.03406	207.73972	595.36981	597.06110	
2558	25.570	-179.22023	12.65501	-173.25307	228.55409	6.38270	-217.38602	-113.13391	35.51272	431.65817	290.12509	34.97589	420.32104	42.08604	1136.51379	-616.52191	-50.66821	574.36212	-327.34909	108.26799	571.66840	-344.67078	50.69828	603.83954	611.94720	206.60497	595.11328	597.03284	
2559	25.580	-179.97157	12.69776	-173.27264	227.51585	6.38371	-217.47459	-113.89805	35.43441	431.81836	289.03409	35.08498	420.32050	41.42759	1135.83105	-616.80591	-51.79240	574.41870	-327.60092	107.27737	571.50574	-344.60583	49.60117	603.92456	611.86835	205.37589	595.24030	596.78424	
2560	25.590	-180.61227	12.59517	-173.41034	226.89987	6.47602	-217.35675	-114.72707	35.63250	431.88470	288.21289	35.13781	420.51840	40.44680	1135.16101	-616.77039	-52.84319	574.52045	-327.58231	106.32458	571.47778	-344.41727	48.42525	603.96466	611.43365	204.75552	595.47186	596.64935	
2561	25.600	-181.74052	12.87082	-173.39201	226.13853	6.51359	-217.28069	-115.67643	35.87526	431.90088	287.45624	35.05315	420.53394	39.24347	1134.64844	-617.01379	-53.42828	574.47729	-327.66269	106.49082	571.63745	-345.10507	47.44592	604.04968	611.41107	203.89642	595.91211	596.65814	
2562	25.610	-182.80518	12.73162	-173.39180	224.67883	6.37362	-217.40244	-116.45277	35.71141	431.79843	286.34583	34.98721	420.45370	38.14671	1134.05347	-617.19464	-54.27179	574.26245	-327.61200	105.34646	571.49860	-345.00970	47.11719	604.20532	611.77734	203.23775	595.96997	596.64618	
2563	25.620	-183.15858	12.56341	-173.35965	224.24702	6.45073	-217.39830	-117.64629	35.78775	431.74387	285.82730	35.02931	420.38947	37.20136	1133.44934	-617.39581	-55.18895	573.98773	-327.65292	104.01697	571.26624	-344.87860	46.41951	604.33057	611.74847	203.07152	596.17883	596.75647	
2564	25.630	-184.26137	12.68776	-173.17976	223.50713	6.54102	-217.43390	-118.38659	35.84397	431.77463	284.84564	35.32211	420.53564	35.65499	1132.86536	-617.62048	-56.16807	573.96826	-327.81696	103.19867	571.22394	-344.84979	45.03552	604.42944	611.64368	201.26511	595.98187	596.78973	
2565	25.640	-185.43715	12.81553	-173.28990	222.33942	6.52072	-217.46165	-119.17960	35.84053	431.83273	283.57251	35.20884	420.48859	34.68517	1132.48901	-617.72070	-57.15607	574.10675	-327.82333	102.67170	571.33807	-345.34796	44.16538	604.53296	611.58557	200.44699	596.10931	596.73871	
2566	25.650	-185.93959	12.64265	-173.37648	221.61652	6.36458	-217.51865	-119.99737	35.88917	431.86493	282.97476	35.19326	420.43488	33.54864	1131.93945	-617.63342	-58.11753	574.05090	-327.77817	101.60095	571.18781	-345.22839	43.32519	604.56842	611.52173	199.34938	595.89862	596.54846	
2567	25.660	-186.95920	12.47936	-173.37195	220.67424	6.43720	-217.42120	-120.88116	35.77892	431.76828	282.11511	35.15354	420.42639	32.05295	1131.42114	-617.86731	-58.96781	573.95282	-327.68768	100.22857	570.90491	-345.03610	42.43198	604.56476	611.56451	197.97037	595.57477	596.04346	
2568	25.670	-187.86868	12.50877	-173.34213	219.79257	6.49903	-217.41441	-121.74905	35.67548	431.83368	281.20401	35.02473	420.35947	30.77844	1131.28491	-617.79993	-60.29708	573.68213	-327.90030	98.97920	570.87653	-344.71851	41.26112	604.50378	611.08655	197.66805	596.20093	596.07672	
2569	25.680	-188.89034	12.53844	-173.13327	218.76711	6.49331	-217.35353	-122.60436	35.72500	431.80972	280.29031	35.20309	420.51398	29.60841	1130.66199	-617.64587	-60.78877	573.48993	-328.05743	98.20007	570.54913	-344.50546	40.62251	604.48083	611.48236	196.59315	596.26770	596.18945	
2570	25.690	-189.76482	12.59743	-173.08214	217.98424	6.38012	-217.33987	-123.70224	35.87091	431.74802	279.34720	35.32532	420.55872	28.19349	1130.34583	-617.64948	-61.95256	573.60577	-327.90811	97.72742	570.93481	-345.46353	39.78679	604.59937	611.45349	195.72031	596.41125	596.19714	
2571	25.700	-190.68585	12.71743	-173.21202	216.66641	6.24071	-217.40897	-124.62866	35.71875	431.67526	278.26340	35.16866	420.34631	26.84621	1130.03625	-617.80438	-63.06773	573.52692	-327.81998	96.01067	570.85425	-345.10098	38.58378	604.60089	611.38324	194.77185	596.38995	596.15802	
2572	25.710	-191.74580	12.55904	-173.16518	216.04794	6.39558	-217.36609	-125.54782	35.62033	431.84521	277.41013	35.18582	420.29623	25.69838	1129.73547	-617.65100	-64.23343	573.54370	-327.88147	96.00753	570.89612	-345.31146	37.73089	604.45673	611.06836	193.69508	596.36639	596.20673	
2573	25.720	-192.81563	12.43056	-173.19174	215.19469	6.45953	-217.27423	-126.59774	35.74311	431.90540	276.55170	35.08392	420.32050	24.52288	1129.38330	-617.65765	-65.60362	573.56012	-327.89435	94.32301	570.96954	-345.35904	36.66459	604.55597	611.42249	192.55637	596.18225	596.19336	
2574	25.730	-193.39929	12.57676	-173.20615	214.05220	6.56667	-217.27577	-127.23267	35.58945	431.94769	275.43030	34.93442	420.42868	23.07926	1129.22656	-617.84729	-66.34636	573.54944	-327.87247	92.81287	570.89972	-345.03531	35.32902	604.42596	611.17242	191.35266	596.20129	596.14160	
2575	25.740	-194.70259	12.67115	-173.14908	212.86461	6.57645	-217.25156	-128.14946	35.52741	432.04114	274.59143	34.97797	420.40973	21.97867	1128.99866	-617.76917	-67.54901	573.45844	-327.64423	91.62862	570.93768	-345.12463	34.65157	604.37817	611.50977	190.45195	596.21698	596.08832	
2576	25.750	-195.28860	12.41287	-173.00549	212.30754	6.58836	-217.36177	-129.41150	35.43426	432.07651	273.61899	34.98153	420.31281	21.07198	1128.67712	-617.59290	-68.33114	573.24475	-327.56821	91.21325	570.99762	-345.30557	33.65787	604.45343	611.60022	189.40501	596.30365	596.04987	
2577	25.760	-196.29619	12.42819	-173.05408	211.16557	6.75532	-217.34642	-130.07242	35.21302	432.17911	272.66367	34.85085	420.38797	19.79286	1128.52087	-617.69476	-69.64070	573.24988	-327.41898	89.49031	570.93225	-344.75940	32.94357	604.29865	611.26929	188.60588	596.46204	596.21661	
2578	25.770	-197.77748	12.96485	-172.89676	210.40398	6.72890	-217.24503	-130.99506	35.30373	431.89499	271.77209	34.85310	420.46744	18.62916	1128.29529	-617.73212	-70.96091	573.34924	-327.59393	88.85765	571.12592	-345.14905	31.43300	604.43866	611.72253	187.38329	596.33539	596.27777	
2579	25.780	-198.41733	12.79170	-172.89774	209.15904	6.77275	-217.20834	-132.31477	35.19355	431.92297	270.38184	34.64270	420.38174	17.63323	1128.12439	-617.44336	-72.22414	573.34491	-327.31750	87.82866	570.99445	-345.13644	30.40911	604.27679	611.82867	186.45836	596.34729	596.34296	
2580	25.790	-199.18008	12.73766	-172.92772	208.11760	6.93384	-217.25711	-132.99515	34.84256	432.17566	269.78775	34.61919	420.39154	16.39756	1127.95544	-617.39258	-73.23720	573.35968	-327.22839	85.63924	571.06122	-344.68906	29.06643	604.18927	611.97803	185.52704	596.30042	596.34784	
2581	25.800	-200.61362	12.91340	-172.71078	207.41710	6.98885	-217.03796	-133.93852	34.96904	432.22583	268.79285	34.72012	420.45435	15.07982	1127.84949	-617.39667	-74.01659	573.27643	-327.11639	84.89539	570.95007	-344.43881	28.15406	604.13782	612.00360	184.19955	596.36664	596.53900	
2582	25.810	-201.18938	12.68923	-172.67801	206.32727	7.04566	-217.13101	-135.11983	34.86905	432.47720	267.52536	34.48061	420.54309	13.81203	1128.06616	-617.24200	-75.65341	573.09857	-327.24771	83.11011	571.05939	-344.15717	26.97849	603.97437	612.08301	183.04311	596.33667	596.57697	
2583	25.820	-202.24522	12.62561	-172.77368	205.52518	6.95064	-217.12877	-135.64645	34.50314	432.43091	266.91187	34.58353	420.65155	12.64073	1127.84155	-617.03998	-76.98139	573.05426	-327.07254	82.36332	570.98322	-344.39316	25.70496	603.89191	612.11798	182.13930	596.34558	596.57788	
2584	25.830	-203.53458	12.95839	-172.77571	204.37384	7.03244	-217.10127	-136.96817	34.61620	432.50452	265.60202	34.43311	420.62222	11.23983	1127.77490	-616.92328	-77.72914	573.01678	-327.05099	81.18792	570.97809	-344.39124	24.67678	603.92413	612.14917	180.18881	596.04797	596.63208	
2585	25.840	-204.27423	12.81082	-172.78680	203.32419	7.13484	-217.02759	-137.96382	34.73239	432.54852	264.53976	34.49900	420.97458	9.97720	1127.75635	-617.09906	-79.22231	573.23535	-326.93719	80.55328	571.21344	-344.65152	23.32445	604.01074	612.31842	179.09142	596.12134	596.79004	
2586	25.850	-205.25002	12.93744	-172.48636	202.34062	7.28699	-216.88094	-138.73630	34.45339	432.25296	264.10083	34.40382	420.95538	8.51048	1127.57544	-616.78796	-80.53284	573.19415	-326.96991	78.88298	571.02020	-343.80029	22.46585	603.84729	612.04828	177.89880	596.09613	596.79352	
2587	25.860	-206.50464	13.04668	-172.46336	201.57443	7.29380	-216.75148	-140.15105	34.25016	432.40512	262.47369	34.01419	420.91766	7.65650	1127.54163	-616.64050	-81.50175	572.97369	-326.88464	77.52976	571.31134	-344.14706	20.41158	603.78876	612.18298	177.26366	596.72034	597.25781	
2588	25.870	-207.02167	12.95191	-172.50612	200.38496	7.40868	-216.86368	-140.97491	34.31369	432.62250	262.20654	34.06933	421.03586	6.10080	1127.47388	-616.62885	-82.66991	573.03674	-326.63422	77.43504	571.42358	-344.29794	19.86457	603.67773	612.60089	175.76717	596.31818	597.14886	
2589	25.880	-208.24487	13.13539	-172.33701	199.46831	7.39442	-216.81967	-141.78702	34.01770	432.70892	260.89719	33.83949	421.03815	4.67351	1127.35327	-616.53418	-83.70043	572.98761	-326.38553	75.01997	571.23804	-343.42688	18.66166	603.66187	612.71399	174.87733	596.42297	597.38470	
2590	25.890	-209.41530	13.32077	-172.41779	198.58994	7.58329	-216.65131	-142.96362	33.98127	432.75800	259.80127	33.79678	421.09149	3.63528	1127.33398	-616.24457	-84.44380	572.45691	-326.10873	74.20573	571.34802	-343.99149	17.33670	603.57111	612.85284	173.36772	596.43903	597.66315	
2591	25.900	-210.09648	13.16277	-172.34631	197.48251	7.66635	-216.55222	-143.89694	33.86406	432.75604	259.22006	33.83553	421.22189	2.25768	1127.33850	-616.06958	-86.32297	572.67554	-326.36343	73.54181	571.40778	-344.04492	15.94485	603.37146	612.80389	172.51093	596.59247	597.64661	
